<svg xmlns="http://www.w3.org/2000/svg" viewBox="0 0 1200 56" width="1200" height="56" role="img" aria-label="pipeline"><title>pipeline</title>
<defs><filter id="gl" x="-20%" y="-60%" width="140%" height="220%"><feGaussianBlur stdDeviation="2.6" result="b"/><feMerge><feMergeNode in="b"/><feMergeNode in="SourceGraphic"/></feMerge></filter>
<pattern id="scan" width="4" height="4" patternUnits="userSpaceOnUse"><rect width="4" height="2" fill="#000" opacity="0.35"/></pattern>
<radialGradient id="vig" cx="50%" cy="50%" r="78%"><stop offset="0.6" stop-color="#000" stop-opacity="0"/><stop offset="1" stop-color="#000" stop-opacity="0.65"/></radialGradient><clipPath id="card"><rect width="1200" height="56" rx="12"/></clipPath></defs>
<g clip-path="url(#card)"><rect width="1200" height="56" fill="#0b0805"/><g filter="url(#gl)"><path d="M25.5 34.8V32.5L31.3 29.8Q31.7 29.7 32.1 29.5Q32.5 29.4 32.7 29.4Q32.4 29.3 32.1 29.2Q31.7 29.1 31.3 28.9L25.5 26.2V23.9L34.4 28.1V30.6ZM49.5 36.0V21.4H54.3Q55.8 21.4 56.9 21.9Q58.0 22.5 58.6 23.5Q59.2 24.5 59.2 25.8Q59.2 27.2 58.6 28.2Q58.0 29.2 56.9 29.8Q55.8 30.3 54.3 30.3H52.0V36.0ZM52.0 28.1H54.3Q55.4 28.1 56.0 27.5Q56.7 26.9 56.7 25.8Q56.7 24.8 56.0 24.2Q55.4 23.6 54.3 23.6H52.0ZM61.8 36.0V33.7H64.7V23.6H61.8V21.4H70.1V23.6H67.2V33.7H70.1V36.0ZM73.5 36.0V21.4H78.3Q79.8 21.4 80.9 21.9Q82.0 22.5 82.6 23.5Q83.2 24.5 83.2 25.8Q83.2 27.2 82.6 28.2Q82.0 29.2 80.9 29.8Q79.8 30.3 78.3 30.3H76.0V36.0ZM76.0 28.1H78.3Q79.4 28.1 80.0 27.5Q80.7 26.9 80.7 25.8Q80.7 24.8 80.0 24.2Q79.4 23.6 78.3 23.6H76.0ZM85.7 36.0V21.4H94.5V23.5H88.2V27.3H93.8V29.5H88.2V33.8H94.5V36.0ZM98.0 36.0V21.4H100.5V33.6H106.7V36.0ZM109.8 36.0V33.7H112.7V23.6H109.8V21.4H118.1V23.6H115.2V33.7H118.1V36.0ZM121.4 36.0V21.4H124.4L128.5 33.1Q128.5 32.5 128.4 31.6Q128.3 30.8 128.3 29.9Q128.2 29.0 128.2 28.3V21.4H130.5V36.0H127.5L123.4 24.2Q123.5 24.7 123.5 25.5Q123.6 26.4 123.6 27.2Q123.7 28.1 123.7 28.8V36.0ZM133.7 36.0V21.4H142.5V23.5H136.2V27.3H141.8V29.5H136.2V33.8H142.5V36.0Z" fill="#ffb000" /><animate attributeName="opacity" values="1;0.86;1;1;0.93;1" dur="3.3s" repeatCount="indefinite"/></g><rect x="152" y="19" width="11" height="20" fill="#ffb000" filter="url(#gl)"><animate attributeName="opacity" values="1;0" calcMode="discrete" dur="0.9s" repeatCount="indefinite"/></rect><line x1="180" y1="29" x2="1176" y2="29" stroke="#3d2a00" stroke-dasharray="2 6"><animate attributeName="stroke-dashoffset" values="0;-16" dur="0.8s" repeatCount="indefinite"/></line>
<g><rect y="-8" width="1200" height="72" fill="url(#scan)"/><animateTransform attributeName="transform" type="translate" values="0,0;0,4" dur="0.25s" repeatCount="indefinite"/></g>
<rect width="1200" height="40" fill="#ffb000" opacity="0.045"><animate attributeName="y" values="-40;56" dur="3s" repeatCount="indefinite"/></rect>
<rect width="1200" height="56" fill="url(#vig)"/></g></svg>