<svg xmlns="http://www.w3.org/2000/svg" viewBox="0 0 580 150" width="580" height="150" role="img" aria-label="SIG Solutions"><title>SIG Solutions</title>
<defs><filter id="gl" x="-20%" y="-60%" width="140%" height="220%"><feGaussianBlur stdDeviation="2.6" result="b"/><feMerge><feMergeNode in="b"/><feMergeNode in="SourceGraphic"/></feMerge></filter>
<pattern id="scan" width="4" height="4" patternUnits="userSpaceOnUse"><rect width="4" height="2" fill="#000" opacity="0.35"/></pattern>
<radialGradient id="vig" cx="50%" cy="50%" r="78%"><stop offset="0.6" stop-color="#000" stop-opacity="0"/><stop offset="1" stop-color="#000" stop-opacity="0.65"/></radialGradient><clipPath id="card"><rect width="580" height="150" rx="12"/></clipPath></defs>
<g clip-path="url(#card)"><rect width="580" height="150" fill="#0b0805"/><rect x="18" y="20" width="38" height="20" rx="3" fill="#ffb000"/><path d="M24.9 34.0V25.2H27.6Q28.8 25.2 29.6 25.8Q30.3 26.4 30.3 27.4Q30.3 28.0 30.1 28.5Q29.8 28.9 29.3 29.1Q28.9 29.4 28.3 29.4V29.3Q28.9 29.3 29.4 29.6Q29.9 29.8 30.2 30.3Q30.5 30.8 30.5 31.5Q30.5 32.2 30.2 32.8Q29.8 33.3 29.2 33.6Q28.6 34.0 27.7 34.0ZM26.3 32.7H27.6Q28.3 32.7 28.6 32.3Q29.0 32.0 29.0 31.4Q29.0 30.8 28.6 30.4Q28.3 30.0 27.6 30.0H26.3ZM26.3 28.8H27.5Q28.1 28.8 28.5 28.5Q28.8 28.2 28.8 27.6Q28.8 27.1 28.5 26.8Q28.1 26.4 27.5 26.4H26.3ZM32.1 34.0V25.2H35.0Q35.9 25.2 36.5 25.5Q37.2 25.9 37.5 26.5Q37.9 27.1 37.9 27.9Q37.9 28.7 37.5 29.3Q37.2 29.9 36.5 30.3Q35.9 30.6 35.0 30.6H33.6V34.0ZM33.6 29.2H35.0Q35.6 29.2 36.0 28.9Q36.4 28.5 36.4 27.9Q36.4 27.3 36.0 26.9Q35.6 26.5 35.0 26.5H33.6ZM42.0 34.1Q41.1 34.1 40.5 33.8Q39.9 33.4 39.5 32.9Q39.2 32.3 39.2 31.5V27.7Q39.2 26.9 39.5 26.3Q39.9 25.7 40.5 25.4Q41.1 25.1 42.0 25.1Q42.8 25.1 43.4 25.4Q44.0 25.7 44.4 26.3Q44.7 26.9 44.7 27.7V31.5Q44.7 32.3 44.4 32.9Q44.0 33.4 43.4 33.8Q42.8 34.1 42.0 34.1ZM42.0 32.8Q42.6 32.8 42.9 32.4Q43.2 32.1 43.2 31.5V27.7Q43.2 27.0 42.9 26.7Q42.6 26.4 42.0 26.4Q41.3 26.4 41.0 26.7Q40.7 27.0 40.7 27.7V31.5Q40.7 32.1 41.0 32.4Q41.3 32.8 42.0 32.8Z" fill="#0b0805" /><circle cx="548" cy="30" r="5" fill="#ffb000" filter="url(#gl)"><animate attributeName="opacity" values="1;0.2;1" dur="1.6s" begin="0.0s" repeatCount="indefinite"/></circle><g filter="url(#gl)"><path d="M32.4 82.2Q30.3 82.2 28.8 81.5Q27.2 80.8 26.4 79.5Q25.6 78.2 25.6 76.5H29.1Q29.1 77.7 30.0 78.4Q30.9 79.2 32.4 79.2Q33.9 79.2 34.8 78.5Q35.6 77.8 35.6 76.5Q35.6 75.5 35.0 74.7Q34.4 73.9 33.3 73.7L31.0 73.0Q28.6 72.4 27.3 70.8Q26.0 69.2 26.0 66.9Q26.0 65.2 26.7 63.9Q27.5 62.6 29.0 61.9Q30.4 61.2 32.4 61.2Q35.3 61.2 37.1 62.7Q38.8 64.3 38.8 66.9H35.3Q35.3 65.7 34.6 65.0Q33.8 64.3 32.3 64.3Q31.0 64.3 30.2 64.9Q29.5 65.6 29.5 66.7Q29.5 67.8 30.0 68.5Q30.6 69.3 31.7 69.6L34.1 70.3Q36.6 70.9 37.9 72.5Q39.1 74.1 39.1 76.4Q39.1 78.1 38.3 79.4Q37.5 80.8 35.9 81.5Q34.4 82.2 32.4 82.2ZM43.3 82.0V78.9H47.4V64.6H43.3V61.5H55.0V64.6H50.9V78.9H55.0V82.0ZM66.1 82.2Q64.1 82.2 62.6 81.5Q61.2 80.7 60.4 79.4Q59.6 78.0 59.6 76.2V67.3Q59.6 65.4 60.4 64.1Q61.2 62.7 62.6 62.0Q64.1 61.2 66.1 61.2Q68.0 61.2 69.5 62.0Q70.9 62.7 71.7 64.1Q72.5 65.4 72.5 67.3H69.0Q69.0 65.8 68.3 65.1Q67.5 64.3 66.1 64.3Q64.6 64.3 63.8 65.1Q63.1 65.8 63.1 67.3V76.2Q63.1 77.6 63.8 78.4Q64.6 79.2 66.1 79.2Q67.5 79.2 68.3 78.4Q69.0 77.6 69.0 76.2V74.1H65.6V71.1H72.5V76.2Q72.5 78.0 71.7 79.4Q70.9 80.7 69.5 81.5Q68.0 82.2 66.1 82.2ZM99.6 82.2Q97.5 82.2 96.0 81.5Q94.4 80.8 93.6 79.5Q92.8 78.2 92.8 76.5H96.3Q96.3 77.7 97.2 78.4Q98.1 79.2 99.6 79.2Q101.1 79.2 102.0 78.5Q102.8 77.8 102.8 76.5Q102.8 75.5 102.2 74.7Q101.6 73.9 100.5 73.7L98.2 73.0Q95.8 72.4 94.5 70.8Q93.2 69.2 93.2 66.9Q93.2 65.2 93.9 63.9Q94.7 62.6 96.2 61.9Q97.6 61.2 99.6 61.2Q102.5 61.2 104.3 62.7Q106.0 64.3 106.0 66.9H102.5Q102.5 65.7 101.8 65.0Q101.0 64.3 99.5 64.3Q98.2 64.3 97.4 64.9Q96.7 65.6 96.7 66.7Q96.7 67.8 97.2 68.5Q97.8 69.3 98.9 69.6L101.3 70.3Q103.8 70.9 105.1 72.5Q106.3 74.1 106.3 76.4Q106.3 78.1 105.5 79.4Q104.7 80.8 103.1 81.5Q101.6 82.2 99.6 82.2ZM116.4 82.2Q114.4 82.2 112.9 81.5Q111.5 80.7 110.7 79.4Q109.9 78.0 109.9 76.2V72.3Q109.9 70.5 110.7 69.1Q111.5 67.8 112.9 67.0Q114.4 66.3 116.4 66.3Q118.3 66.3 119.8 67.0Q121.2 67.8 122.0 69.1Q122.8 70.5 122.8 72.3V76.2Q122.8 78.0 122.0 79.4Q121.2 80.7 119.8 81.5Q118.3 82.2 116.4 82.2ZM116.4 79.1Q117.8 79.1 118.5 78.4Q119.3 77.6 119.3 76.2V72.3Q119.3 70.9 118.5 70.1Q117.8 69.4 116.4 69.4Q115.0 69.4 114.2 70.1Q113.4 70.9 113.4 72.3V76.2Q113.4 77.6 114.2 78.4Q115.0 79.1 116.4 79.1ZM135.5 82.0Q134.0 82.0 132.8 81.3Q131.7 80.7 131.1 79.6Q130.4 78.5 130.4 77.0V64.7H125.5V61.5H133.9V77.0Q133.9 77.8 134.4 78.3Q134.9 78.8 135.7 78.8H140.4V82.0ZM149.9 82.2Q147.0 82.2 145.3 80.6Q143.6 79.0 143.6 76.1V66.6H147.1V76.1Q147.1 77.6 147.9 78.4Q148.6 79.2 149.9 79.2Q151.3 79.2 152.0 78.4Q152.8 77.6 152.8 76.1V66.6H156.3V76.1Q156.3 79.0 154.5 80.6Q152.8 82.2 149.9 82.2ZM168.4 82.0Q166.2 82.0 165.0 80.7Q163.7 79.5 163.7 77.3V69.7H159.6V66.6H163.7V62.2H167.2V66.6H173.2V69.7H167.2V77.3Q167.2 78.8 168.7 78.8H172.9V82.0ZM177.3 82.0V78.8H182.7V69.7H178.0V66.6H186.0V78.8H190.8V82.0ZM184.1 64.0Q183.0 64.0 182.4 63.4Q181.8 62.9 181.8 62.0Q181.8 61.0 182.4 60.5Q183.0 59.9 184.1 59.9Q185.1 59.9 185.7 60.5Q186.4 61.0 186.4 62.0Q186.4 62.9 185.7 63.4Q185.1 64.0 184.1 64.0ZM200.4 82.2Q198.4 82.2 196.9 81.5Q195.5 80.7 194.7 79.4Q193.9 78.0 193.9 76.2V72.3Q193.9 70.5 194.7 69.1Q195.5 67.8 196.9 67.0Q198.4 66.3 200.4 66.3Q202.3 66.3 203.8 67.0Q205.2 67.8 206.0 69.1Q206.8 70.5 206.8 72.3V76.2Q206.8 78.0 206.0 79.4Q205.2 80.7 203.8 81.5Q202.3 82.2 200.4 82.2ZM200.4 79.1Q201.8 79.1 202.5 78.4Q203.3 77.6 203.3 76.2V72.3Q203.3 70.9 202.5 70.1Q201.8 69.4 200.4 69.4Q199.0 69.4 198.2 70.1Q197.4 70.9 197.4 72.3V76.2Q197.4 77.6 198.2 78.4Q199.0 79.1 200.4 79.1ZM210.9 82.0V66.6H214.3V69.5H215.3L214.3 70.3Q214.3 68.4 215.4 67.3Q216.5 66.3 218.5 66.3Q220.7 66.3 222.1 67.8Q223.5 69.3 223.5 71.8V82.0H220.0V72.2Q220.0 70.8 219.2 70.1Q218.5 69.3 217.2 69.3Q215.9 69.3 215.1 70.1Q214.4 70.9 214.4 72.3V82.0ZM233.4 82.2Q231.6 82.2 230.3 81.7Q229.0 81.1 228.2 80.1Q227.5 79.1 227.4 77.8H230.9Q231.0 78.5 231.6 78.9Q232.3 79.4 233.4 79.4H234.6Q235.9 79.4 236.5 78.9Q237.2 78.4 237.2 77.5Q237.2 76.7 236.6 76.2Q236.0 75.8 234.8 75.6L232.9 75.3Q230.3 75.0 229.1 73.9Q227.8 72.9 227.8 70.8Q227.8 68.7 229.3 67.5Q230.7 66.3 233.6 66.3H234.6Q237.2 66.3 238.7 67.4Q240.3 68.6 240.4 70.5H236.9Q236.8 69.9 236.2 69.5Q235.6 69.1 234.6 69.1H233.6Q232.4 69.1 231.8 69.6Q231.2 70.0 231.2 70.8Q231.2 71.6 231.7 72.0Q232.2 72.4 233.3 72.5L235.3 72.8Q238.0 73.2 239.3 74.3Q240.6 75.4 240.6 77.5Q240.6 79.7 239.1 81.0Q237.6 82.2 234.6 82.2Z" fill="#ffb000" /><animate attributeName="opacity" values="1;0.86;1;1;0.93;1" dur="3.0s" repeatCount="indefinite"/></g><path d="M28.1 112.1Q26.9 112.1 26.1 111.4Q25.3 110.8 25.1 109.7H26.4Q26.5 110.3 26.9 110.6Q27.4 111.0 28.1 111.0Q29.0 111.0 29.5 110.5Q29.9 110.0 29.9 109.2V108.2Q29.9 107.3 29.5 106.8Q29.0 106.3 28.2 106.3Q27.6 106.3 27.2 106.6Q26.8 106.9 26.6 107.4H25.4L25.4 101.7H30.8V102.9H26.6L26.6 106.3H27.0L26.6 106.6Q26.6 106.0 27.1 105.6Q27.6 105.2 28.5 105.2Q29.8 105.2 30.5 106.0Q31.2 106.8 31.2 108.2V109.2Q31.2 110.5 30.4 111.3Q29.6 112.1 28.1 112.1ZM36.6 112.1Q35.6 112.1 34.9 111.7Q34.2 111.3 33.8 110.7Q33.5 110.0 33.5 109.1V104.6Q33.5 103.7 33.8 103.0Q34.2 102.3 34.9 102.0Q35.6 101.6 36.6 101.6Q37.5 101.6 38.2 102.0Q38.9 102.3 39.3 103.0Q39.6 103.7 39.6 104.6V109.1Q39.6 110.0 39.3 110.7Q38.9 111.3 38.2 111.7Q37.5 112.1 36.6 112.1ZM36.6 111.0Q37.4 111.0 37.9 110.5Q38.4 109.9 38.4 109.1V104.6Q38.4 103.7 37.9 103.2Q37.4 102.7 36.6 102.7Q35.7 102.7 35.2 103.2Q34.7 103.7 34.7 104.6V109.1Q34.7 109.9 35.2 110.5Q35.7 111.0 36.6 111.0ZM36.6 107.7Q36.2 107.7 35.9 107.4Q35.7 107.2 35.7 106.8Q35.7 106.4 35.9 106.2Q36.2 106.0 36.6 106.0Q36.9 106.0 37.2 106.2Q37.4 106.4 37.4 106.8Q37.4 107.2 37.2 107.4Q36.9 107.7 36.6 107.7ZM44.3 110.6V107.9H41.7V106.8H44.3V104.0H45.6V106.8H48.2V107.9H45.6V110.6ZM61.5 112.1Q60.7 112.1 60.1 111.8Q59.6 111.6 59.2 111.1Q58.9 110.7 58.8 110.1H60.1Q60.2 110.5 60.5 110.7Q60.9 110.9 61.5 110.9H62.1Q62.8 110.9 63.2 110.6Q63.6 110.3 63.6 109.8Q63.6 109.3 63.2 109.1Q62.9 108.8 62.3 108.7L61.2 108.5Q60.1 108.3 59.5 107.8Q59.0 107.3 59.0 106.3Q59.0 105.3 59.7 104.7Q60.3 104.1 61.6 104.1H62.2Q63.3 104.1 63.9 104.7Q64.6 105.2 64.7 106.1H63.5Q63.4 105.7 63.1 105.5Q62.7 105.3 62.2 105.3H61.6Q60.9 105.3 60.6 105.5Q60.3 105.8 60.3 106.3Q60.3 106.8 60.5 107.0Q60.8 107.2 61.4 107.3L62.5 107.5Q63.7 107.7 64.3 108.2Q64.8 108.8 64.8 109.8Q64.8 110.8 64.2 111.5Q63.5 112.1 62.1 112.1ZM70.2 112.1Q69.2 112.1 68.6 111.7Q67.9 111.4 67.5 110.7Q67.1 110.0 67.1 109.2V107.1Q67.1 106.2 67.5 105.5Q67.9 104.8 68.6 104.5Q69.2 104.1 70.2 104.1Q71.1 104.1 71.7 104.5Q72.4 104.8 72.8 105.5Q73.2 106.2 73.2 107.1V108.4H68.4V109.2Q68.4 110.1 68.8 110.5Q69.3 111.0 70.2 111.0Q70.9 111.0 71.3 110.8Q71.8 110.5 71.9 110.0H73.1Q73.0 111.0 72.2 111.5Q71.4 112.1 70.2 112.1ZM71.9 107.6V107.1Q71.9 106.1 71.5 105.6Q71.0 105.2 70.2 105.2Q69.3 105.2 68.8 105.6Q68.4 106.1 68.4 107.1V107.5H72.0ZM77.9 112.1Q76.7 112.1 76.0 111.5Q75.3 110.8 75.3 109.8Q75.3 108.7 76.0 108.1Q76.7 107.5 77.9 107.5H80.2V106.7Q80.2 106.0 79.8 105.6Q79.4 105.2 78.6 105.2Q77.9 105.2 77.4 105.5Q77.0 105.8 76.9 106.3H75.7Q75.8 105.3 76.6 104.7Q77.4 104.1 78.6 104.1Q80.0 104.1 80.7 104.8Q81.5 105.5 81.5 106.7V112.0H80.3V110.5H80.0L80.3 110.3Q80.3 111.1 79.6 111.6Q79.0 112.1 77.9 112.1ZM78.2 111.1Q79.1 111.1 79.7 110.6Q80.2 110.2 80.2 109.5V108.4H77.9Q77.2 108.4 76.9 108.8Q76.5 109.1 76.5 109.7Q76.5 110.4 77.0 110.7Q77.4 111.1 78.2 111.1ZM87.8 112.0Q86.8 112.0 86.2 111.4Q85.7 110.9 85.7 109.9V105.4H83.5V104.3H85.7V102.1H87.0V104.3H90.0V105.4H87.0V109.9Q87.0 110.8 87.8 110.8H89.9V112.0ZM103.8 112.1Q102.8 112.1 102.2 111.7Q101.5 111.4 101.1 110.7Q100.7 110.0 100.7 109.1V107.1Q100.7 106.2 101.1 105.5Q101.5 104.8 102.2 104.5Q102.8 104.1 103.8 104.1Q104.7 104.1 105.3 104.5Q106.0 104.8 106.4 105.5Q106.8 106.2 106.8 107.1V109.1Q106.8 110.0 106.4 110.7Q106.0 111.4 105.3 111.7Q104.7 112.1 103.8 112.1ZM103.8 110.9Q104.6 110.9 105.0 110.5Q105.5 110.0 105.5 109.1V107.1Q105.5 106.2 105.0 105.7Q104.6 105.3 103.8 105.3Q102.9 105.3 102.5 105.7Q102.0 106.2 102.0 107.1V109.1Q102.0 110.0 102.5 110.5Q102.9 110.9 103.8 110.9ZM112.1 112.1Q110.8 112.1 110.0 111.3Q109.2 110.5 109.2 109.2V104.3H110.5V109.2Q110.5 110.0 110.9 110.5Q111.4 111.0 112.1 111.0Q112.9 111.0 113.4 110.5Q113.8 110.0 113.8 109.2V104.3H115.1V109.2Q115.1 110.5 114.3 111.3Q113.5 112.1 112.1 112.1ZM121.4 112.0Q120.4 112.0 119.8 111.4Q119.3 110.9 119.3 109.9V105.4H117.1V104.3H119.3V102.1H120.6V104.3H123.6V105.4H120.6V109.9Q120.6 110.8 121.4 110.8H123.5V112.0ZM129.4 112.1Q128.4 112.1 127.9 111.6Q127.3 111.1 127.3 110.2L127.6 110.5H127.3V112.0H126.0V101.7H127.3V104.0L127.3 105.7H127.6L127.3 106.0Q127.3 105.1 127.9 104.6Q128.5 104.1 129.4 104.1Q130.6 104.1 131.3 104.9Q132.0 105.7 132.0 107.0V109.2Q132.0 110.6 131.3 111.3Q130.6 112.1 129.4 112.1ZM129.0 111.0Q129.8 111.0 130.2 110.5Q130.7 110.0 130.7 109.2V107.1Q130.7 106.2 130.2 105.7Q129.8 105.2 129.0 105.2Q128.2 105.2 127.8 105.7Q127.3 106.2 127.3 107.1V109.2Q127.3 110.0 127.8 110.5Q128.2 111.0 129.0 111.0ZM137.3 112.1Q136.4 112.1 135.8 111.7Q135.1 111.4 134.7 110.7Q134.3 110.0 134.3 109.1V107.1Q134.3 106.2 134.7 105.5Q135.1 104.8 135.8 104.5Q136.4 104.1 137.3 104.1Q138.3 104.1 138.9 104.5Q139.6 104.8 140.0 105.5Q140.4 106.2 140.4 107.1V109.1Q140.4 110.0 140.0 110.7Q139.6 111.4 138.9 111.7Q138.3 112.1 137.3 112.1ZM137.3 110.9Q138.2 110.9 138.6 110.5Q139.1 110.0 139.1 109.1V107.1Q139.1 106.2 138.6 105.7Q138.2 105.3 137.3 105.3Q136.5 105.3 136.1 105.7Q135.6 106.2 135.6 107.1V109.1Q135.6 110.0 136.1 110.5Q136.5 110.9 137.3 110.9ZM145.7 112.1Q144.4 112.1 143.6 111.3Q142.8 110.5 142.8 109.2V104.3H144.1V109.2Q144.1 110.0 144.5 110.5Q145.0 111.0 145.7 111.0Q146.5 111.0 147.0 110.5Q147.4 110.0 147.4 109.2V104.3H148.7V109.2Q148.7 110.5 147.9 111.3Q147.1 112.1 145.7 112.1ZM151.2 112.0V104.3H152.5V105.7H152.8L152.5 106.0Q152.5 105.1 153.0 104.6Q153.6 104.1 154.6 104.1Q155.7 104.1 156.4 104.8Q157.1 105.5 157.1 106.8V112.0H155.8V106.9Q155.8 106.1 155.4 105.6Q154.9 105.2 154.2 105.2Q153.4 105.2 153.0 105.7Q152.5 106.2 152.5 107.1V112.0ZM162.1 112.1Q161.0 112.1 160.2 111.3Q159.5 110.6 159.5 109.2V107.0Q159.5 105.7 160.2 104.9Q160.9 104.1 162.1 104.1Q163.1 104.1 163.6 104.6Q164.2 105.1 164.2 106.0L164.0 105.7H164.2L164.2 104.0V101.7H165.5V112.0H164.2V110.5H164.0L164.2 110.2Q164.2 111.1 163.6 111.6Q163.1 112.1 162.1 112.1ZM162.5 111.0Q163.3 111.0 163.8 110.5Q164.2 110.0 164.2 109.2V107.1Q164.2 106.2 163.8 105.7Q163.3 105.2 162.5 105.2Q161.7 105.2 161.3 105.7Q160.8 106.2 160.8 107.1V109.2Q160.8 110.0 161.3 110.5Q161.7 111.0 162.5 111.0ZM176.5 112.0V101.7H179.4Q180.8 101.7 181.5 102.4Q182.3 103.1 182.3 104.4Q182.3 105.1 182.0 105.6Q181.7 106.1 181.2 106.4Q180.7 106.7 179.9 106.7V106.4Q180.7 106.4 181.3 106.8Q181.9 107.1 182.2 107.7Q182.6 108.3 182.6 109.1Q182.6 110.0 182.2 110.6Q181.8 111.3 181.2 111.6Q180.5 112.0 179.6 112.0ZM177.7 110.8H179.4Q180.3 110.8 180.8 110.3Q181.3 109.9 181.3 109.1Q181.3 108.2 180.8 107.7Q180.3 107.2 179.4 107.2H177.7ZM177.7 106.1H179.3Q180.1 106.1 180.6 105.7Q181.1 105.2 181.1 104.5Q181.1 103.7 180.6 103.3Q180.2 102.9 179.4 102.9H177.7ZM184.8 112.0V101.7H188.1Q189.1 101.7 189.8 102.1Q190.5 102.5 190.9 103.1Q191.2 103.8 191.2 104.7Q191.2 105.7 190.9 106.3Q190.5 107.0 189.8 107.4Q189.1 107.8 188.1 107.8H186.1V112.0ZM186.1 106.6H188.1Q189.0 106.6 189.5 106.1Q189.9 105.6 189.9 104.7Q189.9 103.9 189.5 103.4Q189.0 102.9 188.1 102.9H186.1ZM196.2 112.1Q195.2 112.1 194.6 111.7Q193.9 111.4 193.5 110.7Q193.2 110.1 193.2 109.2V104.5Q193.2 103.6 193.5 102.9Q193.9 102.3 194.6 101.9Q195.2 101.6 196.2 101.6Q197.1 101.6 197.7 101.9Q198.4 102.3 198.8 102.9Q199.1 103.6 199.1 104.5V109.2Q199.1 110.1 198.8 110.7Q198.4 111.4 197.7 111.7Q197.1 112.1 196.2 112.1ZM196.2 111.0Q197.0 111.0 197.4 110.5Q197.9 110.0 197.9 109.2V104.5Q197.9 103.7 197.4 103.2Q197.0 102.7 196.2 102.7Q195.3 102.7 194.9 103.2Q194.4 103.7 194.4 104.5V109.2Q194.4 110.0 194.9 110.5Q195.3 111.0 196.2 111.0ZM202.7 114.2 203.8 109.8H205.6L203.8 114.2ZM221.4 112.1Q220.4 112.1 219.8 111.7Q219.1 111.4 218.7 110.7Q218.3 110.0 218.3 109.1V107.1Q218.3 106.2 218.7 105.5Q219.1 104.8 219.8 104.5Q220.4 104.1 221.4 104.1Q222.3 104.1 222.9 104.5Q223.6 104.8 224.0 105.5Q224.4 106.2 224.4 107.1V109.1Q224.4 110.0 224.0 110.7Q223.6 111.4 222.9 111.7Q222.3 112.1 221.4 112.1ZM221.4 110.9Q222.2 110.9 222.6 110.5Q223.1 110.0 223.1 109.1V107.1Q223.1 106.2 222.6 105.7Q222.2 105.3 221.4 105.3Q220.5 105.3 220.1 105.7Q219.6 106.2 219.6 107.1V109.1Q219.6 110.0 220.1 110.5Q220.5 110.9 221.4 110.9ZM227.3 112.0 226.0 104.3H227.2L227.9 109.7Q228.0 110.0 228.0 110.4Q228.1 110.7 228.1 111.0Q228.1 110.7 228.2 110.4Q228.3 110.0 228.3 109.7L229.1 104.3H230.4L231.2 109.7Q231.2 110.0 231.3 110.4Q231.4 110.7 231.4 111.0Q231.4 110.7 231.5 110.4Q231.6 110.0 231.6 109.7L232.4 104.3H233.5L232.2 112.0H230.8L230.0 106.6Q229.9 106.2 229.8 105.8Q229.8 105.5 229.7 105.2Q229.7 105.5 229.7 105.8Q229.6 106.2 229.5 106.6L228.7 112.0ZM235.2 112.0V104.3H236.5V105.7H236.8L236.5 106.0Q236.5 105.1 237.0 104.6Q237.6 104.1 238.6 104.1Q239.7 104.1 240.4 104.8Q241.1 105.5 241.1 106.8V112.0H239.8V106.9Q239.8 106.1 239.4 105.6Q238.9 105.2 238.2 105.2Q237.4 105.2 237.0 105.7Q236.5 106.2 236.5 107.1V112.0ZM246.6 112.1Q245.6 112.1 245.0 111.7Q244.3 111.4 243.9 110.7Q243.5 110.0 243.5 109.2V107.1Q243.5 106.2 243.9 105.5Q244.3 104.8 245.0 104.5Q245.6 104.1 246.6 104.1Q247.5 104.1 248.1 104.5Q248.8 104.8 249.2 105.5Q249.6 106.2 249.6 107.1V108.4H244.8V109.2Q244.8 110.1 245.2 110.5Q245.7 111.0 246.6 111.0Q247.3 111.0 247.7 110.8Q248.2 110.5 248.3 110.0H249.5Q249.4 111.0 248.6 111.5Q247.8 112.1 246.6 112.1ZM248.3 107.6V107.1Q248.3 106.1 247.9 105.6Q247.4 105.2 246.6 105.2Q245.7 105.2 245.2 105.6Q244.8 106.1 244.8 107.1V107.5H248.4ZM254.5 112.1Q253.4 112.1 252.6 111.3Q251.9 110.6 251.9 109.2V107.0Q251.9 105.7 252.6 104.9Q253.3 104.1 254.5 104.1Q255.5 104.1 256.0 104.6Q256.6 105.1 256.6 106.0L256.4 105.7H256.6L256.6 104.0V101.7H257.9V112.0H256.6V110.5H256.4L256.6 110.2Q256.6 111.1 256.0 111.6Q255.5 112.1 254.5 112.1ZM254.9 111.0Q255.7 111.0 256.2 110.5Q256.6 110.0 256.6 109.2V107.1Q256.6 106.2 256.2 105.7Q255.7 105.2 254.9 105.2Q254.1 105.2 253.7 105.7Q253.2 106.2 253.2 107.1V109.2Q253.2 110.0 253.7 110.5Q254.1 111.0 254.9 111.0ZM271.3 112.1Q270.2 112.1 269.4 111.3Q268.7 110.6 268.7 109.2V107.0Q268.7 105.7 269.4 104.9Q270.1 104.1 271.3 104.1Q272.3 104.1 272.8 104.6Q273.4 105.1 273.4 106.0L273.2 105.7H273.4L273.4 104.0V101.7H274.7V112.0H273.4V110.5H273.2L273.4 110.2Q273.4 111.1 272.8 111.6Q272.3 112.1 271.3 112.1ZM271.7 111.0Q272.5 111.0 273.0 110.5Q273.4 110.0 273.4 109.2V107.1Q273.4 106.2 273.0 105.7Q272.5 105.2 271.7 105.2Q270.9 105.2 270.5 105.7Q270.0 106.2 270.0 107.1V109.2Q270.0 110.0 270.5 110.5Q270.9 111.0 271.7 111.0ZM277.1 112.0V110.8H279.9V105.4H277.5V104.3H281.1V110.8H283.7V112.0ZM280.4 102.9Q279.9 102.9 279.6 102.6Q279.4 102.4 279.4 102.0Q279.4 101.6 279.6 101.3Q279.9 101.1 280.4 101.1Q280.8 101.1 281.1 101.3Q281.4 101.6 281.4 102.0Q281.4 102.4 281.1 102.6Q280.8 102.9 280.4 102.9ZM287.9 112.1Q286.7 112.1 286.0 111.5Q285.3 110.8 285.3 109.8Q285.3 108.7 286.0 108.1Q286.7 107.5 287.9 107.5H290.2V106.7Q290.2 106.0 289.8 105.6Q289.4 105.2 288.6 105.2Q287.9 105.2 287.4 105.5Q287.0 105.8 286.9 106.3H285.7Q285.8 105.3 286.6 104.7Q287.4 104.1 288.6 104.1Q290.0 104.1 290.7 104.8Q291.5 105.5 291.5 106.7V112.0H290.3V110.5H290.0L290.3 110.3Q290.3 111.1 289.6 111.6Q289.0 112.1 287.9 112.1ZM288.2 111.1Q289.1 111.1 289.7 110.6Q290.2 110.2 290.2 109.5V108.4H287.9Q287.2 108.4 286.9 108.8Q286.5 109.1 286.5 109.7Q286.5 110.4 287.0 110.7Q287.4 111.1 288.2 111.1ZM298.0 112.0Q297.3 112.0 296.8 111.7Q296.3 111.4 296.0 110.9Q295.8 110.4 295.8 109.8V102.9H293.2V101.7H297.0V109.8Q297.0 110.3 297.3 110.5Q297.6 110.8 298.0 110.8H300.5V112.0ZM306.4 112.0Q305.7 112.0 305.2 111.7Q304.7 111.4 304.4 110.9Q304.2 110.4 304.2 109.8V102.9H301.6V101.7H305.4V109.8Q305.4 110.3 305.7 110.5Q306.0 110.8 306.4 110.8H308.9V112.0ZM313.8 112.1Q312.8 112.1 312.2 111.7Q311.5 111.4 311.1 110.7Q310.7 110.0 310.7 109.2V107.1Q310.7 106.2 311.1 105.5Q311.5 104.8 312.2 104.5Q312.8 104.1 313.8 104.1Q314.7 104.1 315.3 104.5Q316.0 104.8 316.4 105.5Q316.8 106.2 316.8 107.1V108.4H312.0V109.2Q312.0 110.1 312.4 110.5Q312.9 111.0 313.8 111.0Q314.5 111.0 314.9 110.8Q315.4 110.5 315.5 110.0H316.7Q316.6 111.0 315.8 111.5Q315.0 112.1 313.8 112.1ZM315.5 107.6V107.1Q315.5 106.1 315.1 105.6Q314.6 105.2 313.8 105.2Q312.9 105.2 312.4 105.6Q312.0 106.1 312.0 107.1V107.5H315.6ZM319.5 112.0V104.3H320.7V105.7H321.0L320.6 106.6Q320.6 105.4 321.2 104.7Q321.7 104.1 322.8 104.1Q324.0 104.1 324.7 104.9Q325.4 105.6 325.4 106.9V107.4H324.2V107.1Q324.2 106.1 323.7 105.7Q323.3 105.2 322.5 105.2Q321.7 105.2 321.2 105.7Q320.8 106.2 320.8 107.1V112.0ZM328.7 114.2 329.8 109.8H331.6L329.8 114.2ZM343.9 112.0 346.5 101.7H348.2L350.9 112.0H349.6L348.9 109.2H345.8L345.1 112.0ZM346.1 108.2H348.6L347.9 105.0Q347.6 104.1 347.5 103.5Q347.4 102.9 347.4 102.7Q347.3 102.9 347.2 103.5Q347.1 104.1 346.8 105.0ZM353.0 112.0V110.8H355.1V102.9H353.0V101.7H358.5V102.9H356.4V110.8H358.5V112.0ZM371.7 112.0 369.1 104.3H370.4L372.1 109.4Q372.3 109.9 372.4 110.3Q372.5 110.7 372.6 111.0Q372.6 110.7 372.8 110.3Q372.9 109.9 373.0 109.4L374.7 104.3H376.0L373.4 112.0ZM381.0 112.1Q380.0 112.1 379.4 111.7Q378.7 111.4 378.3 110.7Q377.9 110.0 377.9 109.1V107.1Q377.9 106.2 378.3 105.5Q378.7 104.8 379.4 104.5Q380.0 104.1 381.0 104.1Q381.9 104.1 382.5 104.5Q383.2 104.8 383.6 105.5Q384.0 106.2 384.0 107.1V109.1Q384.0 110.0 383.6 110.7Q383.2 111.4 382.5 111.7Q381.9 112.1 381.0 112.1ZM381.0 110.9Q381.8 110.9 382.2 110.5Q382.7 110.0 382.7 109.1V107.1Q382.7 106.2 382.2 105.7Q381.8 105.3 381.0 105.3Q380.1 105.3 379.7 105.7Q379.2 106.2 379.2 107.1V109.1Q379.2 110.0 379.7 110.5Q380.1 110.9 381.0 110.9ZM386.3 112.0V110.8H389.1V105.4H386.7V104.3H390.3V110.8H392.9V112.0ZM389.6 102.9Q389.1 102.9 388.8 102.6Q388.6 102.4 388.6 102.0Q388.6 101.6 388.8 101.3Q389.1 101.1 389.6 101.1Q390.0 101.1 390.3 101.3Q390.6 101.6 390.6 102.0Q390.6 102.4 390.3 102.6Q390.0 102.9 389.6 102.9ZM397.8 112.1Q396.9 112.1 396.2 111.7Q395.5 111.4 395.1 110.7Q394.7 110.1 394.7 109.2V107.1Q394.7 106.1 395.1 105.5Q395.5 104.8 396.2 104.5Q396.9 104.1 397.8 104.1Q399.1 104.1 399.9 104.8Q400.8 105.5 400.8 106.8H399.5Q399.5 106.0 399.0 105.6Q398.6 105.2 397.8 105.2Q397.0 105.2 396.5 105.7Q396.0 106.2 396.0 107.0V109.2Q396.0 110.0 396.5 110.5Q397.0 111.0 397.8 111.0Q398.6 111.0 399.0 110.6Q399.5 110.2 399.5 109.4H400.8Q400.8 110.7 399.9 111.4Q399.1 112.1 397.8 112.1ZM406.2 112.1Q405.2 112.1 404.6 111.7Q403.9 111.4 403.5 110.7Q403.1 110.0 403.1 109.2V107.1Q403.1 106.2 403.5 105.5Q403.9 104.8 404.6 104.5Q405.2 104.1 406.2 104.1Q407.1 104.1 407.7 104.5Q408.4 104.8 408.8 105.5Q409.2 106.2 409.2 107.1V108.4H404.4V109.2Q404.4 110.1 404.8 110.5Q405.3 111.0 406.2 111.0Q406.9 111.0 407.3 110.8Q407.8 110.5 407.9 110.0H409.1Q409.0 111.0 408.2 111.5Q407.4 112.1 406.2 112.1ZM407.9 107.6V107.1Q407.9 106.1 407.5 105.6Q407.0 105.2 406.2 105.2Q405.3 105.2 404.8 105.6Q404.4 106.1 404.4 107.1V107.5H408.0ZM420.3 112.0V104.3H421.5V105.7H421.8L421.4 106.6Q421.4 105.4 422.0 104.7Q422.5 104.1 423.6 104.1Q424.8 104.1 425.5 104.9Q426.2 105.6 426.2 106.9V107.4H425.0V107.1Q425.0 106.1 424.5 105.7Q424.1 105.2 423.3 105.2Q422.5 105.2 422.0 105.7Q421.6 106.2 421.6 107.1V112.0ZM431.4 112.1Q430.4 112.1 429.8 111.7Q429.1 111.4 428.7 110.7Q428.3 110.0 428.3 109.1V107.1Q428.3 106.2 428.7 105.5Q429.1 104.8 429.8 104.5Q430.4 104.1 431.4 104.1Q432.3 104.1 432.9 104.5Q433.6 104.8 434.0 105.5Q434.4 106.2 434.4 107.1V109.1Q434.4 110.0 434.0 110.7Q433.6 111.4 432.9 111.7Q432.3 112.1 431.4 112.1ZM431.4 110.9Q432.2 110.9 432.6 110.5Q433.1 110.0 433.1 109.1V107.1Q433.1 106.2 432.6 105.7Q432.2 105.3 431.4 105.3Q430.5 105.3 430.1 105.7Q429.6 106.2 429.6 107.1V109.1Q429.6 110.0 430.1 110.5Q430.5 110.9 431.4 110.9ZM439.7 112.1Q438.4 112.1 437.6 111.3Q436.8 110.5 436.8 109.2V104.3H438.1V109.2Q438.1 110.0 438.5 110.5Q439.0 111.0 439.7 111.0Q440.5 111.0 441.0 110.5Q441.4 110.0 441.4 109.2V104.3H442.7V109.2Q442.7 110.5 441.9 111.3Q441.1 112.1 439.7 112.1ZM449.0 112.0Q448.0 112.0 447.4 111.4Q446.9 110.9 446.9 109.9V105.4H444.7V104.3H446.9V102.1H448.2V104.3H451.2V105.4H448.2V109.9Q448.2 110.8 449.0 110.8H451.1V112.0ZM453.5 112.0V110.8H456.3V105.4H453.9V104.3H457.5V110.8H460.1V112.0ZM456.8 102.9Q456.3 102.9 456.0 102.6Q455.8 102.4 455.8 102.0Q455.8 101.6 456.0 101.3Q456.3 101.1 456.8 101.1Q457.2 101.1 457.5 101.3Q457.8 101.6 457.8 102.0Q457.8 102.4 457.5 102.6Q457.2 102.9 456.8 102.9ZM462.0 112.0V104.3H463.3V105.7H463.6L463.3 106.0Q463.3 105.1 463.8 104.6Q464.4 104.1 465.4 104.1Q466.5 104.1 467.2 104.8Q467.9 105.5 467.9 106.8V112.0H466.6V106.9Q466.6 106.1 466.2 105.6Q465.7 105.2 465.0 105.2Q464.2 105.2 463.8 105.7Q463.3 106.2 463.3 107.1V112.0ZM471.4 114.5V113.3H473.9Q474.4 113.3 474.7 113.1Q475.0 112.8 475.0 112.2V111.3L475.0 109.9H474.8L475.0 109.6Q475.0 110.5 474.4 111.0Q473.9 111.5 472.9 111.5Q471.8 111.5 471.1 110.7Q470.4 109.9 470.4 108.6V107.0Q470.4 105.7 471.1 104.9Q471.8 104.1 472.9 104.1Q473.9 104.1 474.4 104.6Q475.0 105.1 475.0 105.9L474.8 105.7H475.0V104.3H476.2V112.2Q476.2 113.3 475.6 113.9Q475.0 114.5 473.8 114.5ZM473.3 110.4Q474.1 110.4 474.6 109.9Q475.0 109.4 475.0 108.5V107.1Q475.0 106.2 474.6 105.7Q474.1 105.2 473.3 105.2Q472.5 105.2 472.1 105.7Q471.6 106.2 471.6 107.1V108.5Q471.6 109.4 472.1 109.9Q472.5 110.4 473.3 110.4Z" fill="#c98a00" /><path d="M27.3 136.0Q26.7 136.0 26.2 135.8Q25.7 135.6 25.4 135.2Q25.1 134.9 25.0 134.3H26.1Q26.2 134.7 26.5 134.9Q26.8 135.1 27.3 135.1H27.9Q28.5 135.1 28.8 134.8Q29.1 134.6 29.1 134.1Q29.1 133.7 28.8 133.5Q28.5 133.2 28.0 133.1L27.1 133.0Q26.1 132.8 25.7 132.4Q25.2 132.0 25.2 131.1Q25.2 130.2 25.8 129.7Q26.3 129.3 27.4 129.3H27.9Q28.8 129.3 29.4 129.7Q30.0 130.1 30.1 130.9H29.0Q29.0 130.6 28.7 130.4Q28.4 130.2 27.9 130.2H27.4Q26.8 130.2 26.5 130.4Q26.3 130.7 26.3 131.1Q26.3 131.5 26.5 131.7Q26.7 131.9 27.3 132.0L28.2 132.1Q29.2 132.3 29.7 132.8Q30.2 133.2 30.2 134.1Q30.2 135.0 29.6 135.5Q29.0 136.0 27.9 136.0ZM32.2 136.0V135.0H34.5V130.3H32.5V129.4H35.6V135.0H37.8V136.0ZM34.9 128.2Q34.5 128.2 34.3 128.0Q34.1 127.8 34.1 127.4Q34.1 127.0 34.3 126.8Q34.5 126.6 34.9 126.6Q35.3 126.6 35.6 126.8Q35.8 127.0 35.8 127.4Q35.8 127.8 35.6 128.0Q35.3 128.2 34.9 128.2ZM40.3 138.1V137.1H42.4Q42.9 137.1 43.1 136.9Q43.4 136.7 43.4 136.2V135.4L43.4 134.2H43.2L43.4 134.0Q43.4 134.7 42.9 135.1Q42.4 135.5 41.6 135.5Q40.6 135.5 40.0 134.9Q39.4 134.2 39.4 133.1V131.7Q39.4 130.6 40.0 129.9Q40.6 129.2 41.6 129.2Q42.4 129.2 42.9 129.7Q43.4 130.1 43.4 130.8L43.2 130.6H43.4V129.4H44.4V136.2Q44.4 137.1 43.9 137.6Q43.3 138.1 42.4 138.1ZM41.9 134.6Q42.6 134.6 43.0 134.2Q43.4 133.8 43.4 133.0V131.8Q43.4 131.0 43.0 130.6Q42.6 130.2 41.9 130.2Q41.2 130.2 40.9 130.6Q40.5 131.0 40.5 131.8V133.0Q40.5 133.8 40.9 134.2Q41.2 134.6 41.9 134.6ZM48.9 136.0Q48.3 136.0 47.8 135.8Q47.3 135.6 47.0 135.2Q46.7 134.9 46.6 134.3H47.7Q47.8 134.7 48.1 134.9Q48.4 135.1 48.9 135.1H49.5Q50.1 135.1 50.4 134.8Q50.7 134.6 50.7 134.1Q50.7 133.7 50.4 133.5Q50.1 133.2 49.6 133.1L48.7 133.0Q47.7 132.8 47.3 132.4Q46.8 132.0 46.8 131.1Q46.8 130.2 47.4 129.7Q47.9 129.3 49.0 129.3H49.5Q50.4 129.3 51.0 129.7Q51.6 130.1 51.7 130.9H50.6Q50.6 130.6 50.3 130.4Q50.0 130.2 49.5 130.2H49.0Q48.4 130.2 48.1 130.4Q47.9 130.7 47.9 131.1Q47.9 131.5 48.1 131.7Q48.3 131.9 48.9 132.0L49.8 132.1Q50.8 132.3 51.3 132.8Q51.8 133.2 51.8 134.1Q51.8 135.0 51.2 135.5Q50.6 136.0 49.5 136.0ZM56.4 136.0Q55.6 136.0 55.0 135.7Q54.4 135.4 54.1 134.9Q53.8 134.3 53.8 133.5V131.8Q53.8 131.0 54.1 130.4Q54.4 129.9 55.0 129.6Q55.6 129.3 56.4 129.3Q57.1 129.3 57.7 129.6Q58.3 129.9 58.6 130.4Q58.9 131.0 58.9 131.8V133.5Q58.9 134.3 58.6 134.9Q58.3 135.4 57.7 135.7Q57.1 136.0 56.4 136.0ZM56.4 135.1Q57.1 135.1 57.5 134.7Q57.9 134.3 57.9 133.5V131.8Q57.9 131.0 57.5 130.6Q57.1 130.2 56.4 130.2Q55.7 130.2 55.3 130.6Q54.9 131.0 54.9 131.8V133.5Q54.9 134.3 55.3 134.7Q55.7 135.1 56.4 135.1ZM64.5 136.0Q63.9 136.0 63.4 135.7Q63.0 135.5 62.8 135.1Q62.5 134.7 62.5 134.1V128.2H60.3V127.2H63.6V134.1Q63.6 134.5 63.8 134.7Q64.1 135.0 64.5 135.0H66.6V136.0ZM70.7 136.1Q69.6 136.1 68.9 135.4Q68.2 134.7 68.2 133.6V129.4H69.3V133.6Q69.3 134.3 69.7 134.7Q70.1 135.1 70.7 135.1Q71.4 135.1 71.8 134.7Q72.2 134.3 72.2 133.6V129.4H73.3V133.6Q73.3 134.7 72.6 135.4Q71.9 136.1 70.7 136.1ZM78.7 136.0Q77.8 136.0 77.3 135.5Q76.9 135.0 76.9 134.2V130.3H75.0V129.4H76.9V127.5H78.0V129.4H80.6V130.3H78.0V134.2Q78.0 135.0 78.7 135.0H80.5V136.0ZM82.6 136.0V135.0H84.9V130.3H82.9V129.4H86.0V135.0H88.2V136.0ZM85.3 128.2Q84.9 128.2 84.7 128.0Q84.5 127.8 84.5 127.4Q84.5 127.0 84.7 126.8Q84.9 126.6 85.3 126.6Q85.7 126.6 86.0 126.8Q86.2 127.0 86.2 127.4Q86.2 127.8 86.0 128.0Q85.7 128.2 85.3 128.2ZM92.3 136.0Q91.6 136.0 91.0 135.7Q90.4 135.4 90.1 134.9Q89.8 134.3 89.8 133.5V131.8Q89.8 131.0 90.1 130.4Q90.4 129.9 91.0 129.6Q91.6 129.3 92.3 129.3Q93.1 129.3 93.7 129.6Q94.3 129.9 94.6 130.4Q94.9 131.0 94.9 131.8V133.5Q94.9 134.3 94.6 134.9Q94.3 135.4 93.7 135.7Q93.1 136.0 92.3 136.0ZM92.3 135.1Q93.1 135.1 93.5 134.7Q93.8 134.3 93.8 133.5V131.8Q93.8 131.0 93.5 130.6Q93.1 130.2 92.3 130.2Q91.7 130.2 91.3 130.6Q90.8 131.0 90.8 131.8V133.5Q90.8 134.3 91.3 134.7Q91.7 135.1 92.3 135.1ZM97.1 136.0V129.4H98.1V130.6H98.4L98.1 130.9Q98.1 130.1 98.6 129.7Q99.1 129.2 99.9 129.2Q100.9 129.2 101.5 129.8Q102.1 130.5 102.1 131.5V136.0H101.0V131.6Q101.0 130.9 100.6 130.5Q100.2 130.2 99.6 130.2Q98.9 130.2 98.5 130.6Q98.1 131.0 98.1 131.8V136.0ZM106.5 136.0Q105.9 136.0 105.4 135.8Q104.9 135.6 104.6 135.2Q104.3 134.9 104.2 134.3H105.3Q105.4 134.7 105.7 134.9Q106.0 135.1 106.5 135.1H107.1Q107.7 135.1 108.0 134.8Q108.3 134.6 108.3 134.1Q108.3 133.7 108.0 133.5Q107.7 133.2 107.2 133.1L106.3 133.0Q105.3 132.8 104.9 132.4Q104.4 132.0 104.4 131.1Q104.4 130.2 105.0 129.7Q105.5 129.3 106.6 129.3H107.1Q108.0 129.3 108.6 129.7Q109.2 130.1 109.3 130.9H108.2Q108.2 130.6 107.9 130.4Q107.6 130.2 107.1 130.2H106.6Q106.0 130.2 105.7 130.4Q105.5 130.7 105.5 131.1Q105.5 131.5 105.7 131.7Q105.9 131.9 106.5 132.0L107.4 132.1Q108.4 132.3 108.9 132.8Q109.4 133.2 109.4 134.1Q109.4 135.0 108.8 135.5Q108.2 136.0 107.1 136.0ZM114.0 136.1Q113.5 136.1 113.2 135.8Q113.0 135.5 113.0 135.1Q113.0 134.6 113.2 134.4Q113.5 134.1 114.0 134.1Q114.4 134.1 114.7 134.4Q114.9 134.6 114.9 135.1Q114.9 135.5 114.7 135.8Q114.4 136.1 114.0 136.1ZM121.2 136.1Q120.4 136.1 119.8 135.8Q119.2 135.5 118.9 134.9Q118.6 134.3 118.6 133.6V131.8Q118.6 131.0 118.9 130.4Q119.2 129.8 119.8 129.5Q120.4 129.2 121.2 129.2Q122.3 129.2 123.0 129.8Q123.7 130.5 123.8 131.5H122.7Q122.7 130.9 122.3 130.5Q121.9 130.2 121.2 130.2Q120.5 130.2 120.1 130.6Q119.7 131.0 119.7 131.7V133.6Q119.7 134.3 120.1 134.7Q120.5 135.1 121.2 135.1Q121.9 135.1 122.3 134.8Q122.7 134.4 122.7 133.8H123.8Q123.7 134.8 123.0 135.5Q122.3 136.1 121.2 136.1ZM128.4 136.0Q127.6 136.0 127.0 135.7Q126.4 135.4 126.1 134.9Q125.8 134.3 125.8 133.5V131.8Q125.8 131.0 126.1 130.4Q126.4 129.9 127.0 129.6Q127.6 129.3 128.4 129.3Q129.1 129.3 129.7 129.6Q130.3 129.9 130.6 130.4Q130.9 131.0 130.9 131.8V133.5Q130.9 134.3 130.6 134.9Q130.3 135.4 129.7 135.7Q129.1 136.0 128.4 136.0ZM128.4 135.1Q129.1 135.1 129.5 134.7Q129.9 134.3 129.9 133.5V131.8Q129.9 131.0 129.5 130.6Q129.1 130.2 128.4 130.2Q127.7 130.2 127.3 130.6Q126.8 131.0 126.8 131.8V133.5Q126.8 134.3 127.3 134.7Q127.7 135.1 128.4 135.1ZM135.6 136.1Q135.1 136.1 134.8 135.8Q134.6 135.5 134.6 135.1Q134.6 134.6 134.8 134.4Q135.1 134.1 135.6 134.1Q136.0 134.1 136.3 134.4Q136.5 134.6 136.5 135.1Q136.5 135.5 136.3 135.8Q136.0 136.1 135.6 136.1ZM140.2 136.0V134.9L143.9 130.3H140.3V129.4H145.1V130.4L141.4 135.0H145.3V136.0ZM149.4 136.1Q148.3 136.1 147.7 135.5Q147.1 135.0 147.1 134.1Q147.1 133.2 147.7 132.6Q148.3 132.1 149.4 132.1H151.4V131.5Q151.4 130.8 151.0 130.5Q150.7 130.2 150.0 130.2Q149.4 130.2 149.0 130.4Q148.6 130.7 148.5 131.1H147.5Q147.6 130.2 148.3 129.7Q149.0 129.2 150.0 129.2Q151.2 129.2 151.8 129.8Q152.5 130.4 152.5 131.4V136.0H151.4V134.7H151.2L151.4 134.5Q151.4 135.2 150.9 135.7Q150.3 136.1 149.4 136.1ZM149.6 135.2Q150.4 135.2 150.9 134.8Q151.4 134.5 151.4 133.9V132.9H149.4Q148.8 132.9 148.5 133.2Q148.2 133.5 148.2 134.0Q148.2 134.6 148.6 134.9Q149.0 135.2 149.6 135.2Z" fill="#8a6200" />
<g><rect y="-8" width="580" height="166" fill="url(#scan)"/><animateTransform attributeName="transform" type="translate" values="0,0;0,4" dur="0.25s" repeatCount="indefinite"/></g>
<rect width="580" height="40" fill="#ffb000" opacity="0.045"><animate attributeName="y" values="-40;150" dur="4s" repeatCount="indefinite"/></rect>
<rect width="580" height="150" fill="url(#vig)"/></g><rect x="0.5" y="0.5" width="579" height="149" rx="12" fill="none" stroke="#3d2a00"/></svg>